# Blender 4.5.3 LTS
# www.blender.org
mtllib rocket.mtl
o Cylinder
v 0.000000 0.052320 -0.355914
v 0.045310 0.026160 -0.355914
v 0.045310 -0.026160 -0.355914
v 0.000000 -0.052320 -0.355914
v -0.045310 -0.026160 -0.355914
v -0.045310 0.026160 -0.355914
v -0.079100 -0.045668 0.143455
v -0.079100 -0.045668 0.093820
v -0.079100 -0.045668 -0.093820
v -0.079100 -0.045668 -0.143455
v 0.000000 0.091337 0.093821
v 0.000000 0.091337 0.143455
v -0.079100 0.045668 0.143455
v -0.079100 0.045668 0.093820
v 0.000000 0.091337 -0.143455
v 0.000000 0.091337 -0.093820
v -0.079100 0.045668 -0.093820
v -0.079100 0.045668 -0.143455
v 0.000000 0.077550 -0.077724
v 0.000000 0.077550 -0.160173
v 0.000000 0.077550 0.158542
v 0.000000 0.077550 0.082276
v 0.067160 0.038775 0.082276
v 0.067160 0.038775 0.158542
v 0.067160 0.038775 -0.160173
v 0.067160 0.038775 -0.077724
v 0.067160 -0.038775 0.082276
v 0.067160 -0.038775 0.158542
v 0.067160 -0.038775 -0.160173
v 0.067160 -0.038775 -0.077724
v 0.000000 -0.077550 0.082276
v 0.000000 -0.077550 0.158542
v 0.000000 -0.077550 -0.160173
v 0.000000 -0.077550 -0.077724
v -0.067160 -0.038775 0.082276
v -0.067160 -0.038775 0.158542
v -0.067160 -0.038775 -0.160173
v -0.067160 -0.038775 -0.077724
v -0.067160 0.038775 0.082276
v -0.067160 0.038775 0.158542
v -0.067160 0.038775 -0.160173
v -0.067160 0.038775 -0.077724
v 0.000000 -0.091337 -0.143455
v 0.000000 -0.091337 -0.093821
v 0.000000 -0.091337 0.093820
v 0.000000 -0.091337 0.143455
v 0.079100 -0.045668 -0.143455
v 0.079100 -0.045668 -0.093820
v 0.079100 -0.045668 0.093820
v 0.079100 -0.045668 0.143455
v 0.079100 0.045668 -0.143455
v 0.079100 0.045668 -0.093820
v 0.079100 0.045668 0.093820
v 0.079100 0.045668 0.143455
v 0.000000 0.069447 -0.451927
v 0.060143 0.034724 -0.451927
v 0.060143 -0.034724 -0.451927
v 0.000000 -0.069447 -0.451927
v -0.060143 -0.034724 -0.451927
v -0.060143 0.034724 -0.451927
v 0.000000 -0.000000 0.539350
v 0.000000 0.077550 0.278148
v 0.000000 0.060736 0.395684
v 0.052599 0.030368 0.395684
v 0.067160 0.038775 0.278148
v 0.052599 -0.030368 0.395684
v 0.067160 -0.038775 0.278148
v 0.000000 -0.060736 0.395684
v 0.000000 -0.077550 0.278148
v -0.052599 -0.030368 0.395684
v -0.067160 -0.038775 0.278148
v -0.052599 0.030368 0.395684
v -0.067160 0.038775 0.278148
v 0.000000 0.096510 -0.451927
v 0.083581 0.048255 -0.451927
v 0.083581 -0.048255 -0.451927
v 0.000000 -0.096510 -0.451927
v -0.083581 -0.048255 -0.451927
v -0.083581 0.048255 -0.451927
v -0.000000 0.038853 -0.402513
v 0.033647 0.019426 -0.402513
v 0.033647 -0.019426 -0.402513
v -0.000000 -0.038853 -0.402513
v -0.033647 -0.019426 -0.402513
v -0.033647 0.019426 -0.402513
v 0.000000 0.067995 -0.337924
v 0.000000 0.077550 -0.299947
v 0.067160 0.038775 -0.299947
v 0.058885 0.033997 -0.337924
v 0.067160 -0.038775 -0.299947
v 0.058885 -0.033997 -0.337924
v 0.000000 -0.077550 -0.299947
v 0.000000 -0.067995 -0.337924
v -0.067160 -0.038775 -0.299947
v -0.058885 -0.033997 -0.337924
v -0.067160 0.038775 -0.299947
v -0.058885 0.033997 -0.337924
vn -0.0000 0.9846 -0.1748
vn 0.8527 0.4923 -0.1748
vn 0.8527 -0.4923 -0.1748
vn -0.0000 -0.9846 -0.1748
vn -0.8527 -0.4923 -0.1748
vn -0.8527 0.4923 -0.1748
vn -0.8181 -0.4724 0.3279
vn -0.8016 -0.4628 -0.3786
vn -0.8218 -0.4745 0.3153
vn -0.8239 -0.4757 -0.3079
vn -0.0000 0.9256 -0.3786
vn -0.0000 0.9447 0.3279
vn -0.8181 0.4724 0.3279
vn -0.8016 0.4628 -0.3786
vn -0.0000 0.9514 -0.3079
vn -0.0000 0.9490 0.3153
vn -0.8218 0.4745 0.3153
vn -0.8239 0.4757 -0.3079
vn -0.0000 0.9212 0.3890
vn -0.0000 0.9257 -0.3782
vn -0.0000 0.9131 0.4078
vn -0.0000 0.8742 -0.4855
vn 0.7571 0.4371 -0.4855
vn 0.7907 0.4565 0.4078
vn 0.8017 0.4629 -0.3782
vn 0.7978 0.4606 0.3890
vn 0.7571 -0.4371 -0.4855
vn 0.7907 -0.4565 0.4078
vn 0.8017 -0.4629 -0.3782
vn 0.7978 -0.4606 0.3890
vn -0.0000 -0.8742 -0.4855
vn -0.0000 -0.9131 0.4078
vn -0.0000 -0.9257 -0.3782
vn -0.0000 -0.9212 0.3890
vn -0.7571 -0.4371 -0.4855
vn -0.7907 -0.4565 0.4078
vn -0.8017 -0.4629 -0.3782
vn -0.7978 -0.4606 0.3890
vn -0.7571 0.4371 -0.4855
vn -0.7907 0.4565 0.4078
vn -0.8017 0.4629 -0.3782
vn -0.7978 0.4606 0.3890
vn -0.0000 -0.9514 -0.3079
vn -0.0000 -0.9490 0.3153
vn -0.0000 -0.9256 -0.3786
vn -0.0000 -0.9447 0.3279
vn 0.8239 -0.4757 -0.3079
vn 0.8218 -0.4745 0.3153
vn 0.8016 -0.4628 -0.3786
vn 0.8181 -0.4724 0.3279
vn 0.8239 0.4757 -0.3079
vn 0.8218 0.4745 0.3153
vn 0.8016 0.4628 -0.3786
vn 0.8181 0.4724 0.3279
vn -0.0000 -0.3447 -0.9387
vn -0.2986 -0.1724 -0.9387
vn -0.2986 0.1724 -0.9387
vn -0.0000 0.3447 -0.9387
vn 0.2986 0.1724 -0.9387
vn 0.2986 -0.1724 -0.9387
vn -0.0000 -0.0000 1.0000
vn -0.0000 0.9976 0.0694
vn -0.0000 0.9662 0.2577
vn 0.8368 0.4831 0.2577
vn 0.8639 0.4988 0.0694
vn 0.8368 -0.4831 0.2577
vn 0.8639 -0.4988 0.0694
vn -0.0000 -0.9662 0.2577
vn -0.0000 -0.9976 0.0694
vn -0.8368 -0.4831 0.2577
vn -0.8639 -0.4988 0.0694
vn -0.8368 0.4831 0.2577
vn -0.8639 0.4988 0.0694
vn -0.0000 0.8956 -0.4449
vn 0.7756 0.4478 -0.4449
vn 0.7756 -0.4478 -0.4449
vn -0.0000 -0.8956 -0.4449
vn -0.7756 -0.4478 -0.4449
vn -0.7756 0.4478 -0.4449
vn -0.0000 -0.5907 -0.8069
vn -0.5116 -0.2953 -0.8069
vn -0.5116 0.2953 -0.8069
vn -0.0000 0.5907 -0.8069
vn 0.5116 0.2953 -0.8069
vn 0.5116 -0.2953 -0.8069
vn -0.0000 0.9004 -0.4350
vn -0.0000 0.9930 -0.1184
vn 0.8599 0.4965 -0.1184
vn 0.7798 0.4502 -0.4350
vn 0.8599 -0.4965 -0.1184
vn 0.7798 -0.4502 -0.4350
vn -0.0000 -0.9930 -0.1184
vn -0.0000 -0.9004 -0.4350
vn -0.8599 -0.4965 -0.1184
vn -0.7798 -0.4502 -0.4350
vn -0.8599 0.4965 -0.1184
vn -0.7798 0.4502 -0.4350
vt 0.807812 0.818872
vt 0.807812 0.662407
vt 0.826339 0.662407
vt 0.826339 0.818872
vt 0.926197 0.795254
vt 0.926197 0.717021
vt 0.944724 0.717021
vt 0.944724 0.795254
vt 0.952253 0.717021
vt 0.952253 0.560556
vt 0.970780 0.560556
vt 0.970780 0.717021
vt 0.926197 0.560556
vt 0.944724 0.560556
vt 0.952253 0.482324
vt 0.970780 0.482324
vt 0.926197 0.482324
vt 0.944724 0.482324
vt 0.440827 0.079466
vt 0.363208 0.124279
vt 0.297649 0.086428
vt 0.440827 0.003765
vt 0.139267 0.365567
vt 0.024219 0.431990
vt 0.003765 0.420181
vt 0.139267 0.341948
vt 0.532850 0.564836
vt 0.532850 0.431990
vt 0.553304 0.420181
vt 0.553304 0.576645
vt 0.696335 0.631260
vt 0.811384 0.564836
vt 0.831838 0.576645
vt 0.696335 0.654878
vt 0.842084 0.093806
vt 0.727036 0.027383
vt 0.727036 0.003765
vt 0.862538 0.081997
vt 0.581287 0.431990
vt 0.581287 0.564836
vt 0.560833 0.576645
vt 0.560833 0.420181
vt 0.024219 0.564836
vt 0.003765 0.576645
vt 0.926197 0.959248
vt 0.926197 0.802783
vt 0.944724 0.802783
vt 0.944724 0.959248
vt 0.952253 0.959248
vt 0.952253 0.802783
vt 0.970779 0.802783
vt 0.970779 0.959248
vt 0.956898 0.238462
vt 0.956898 0.160229
vt 0.975424 0.160229
vt 0.975424 0.238462
vt 0.807812 0.897104
vt 0.826338 0.897104
vt 0.956898 0.003765
vt 0.975424 0.003765
vt 0.952253 0.795254
vt 0.970780 0.795254
vt 0.417801 0.365567
vt 0.417801 0.341948
vt 0.842084 0.226653
vt 0.862538 0.238462
vt 0.696335 0.365567
vt 0.696335 0.341948
vt 0.302753 0.431990
vt 0.282299 0.420181
vt 0.139267 0.631260
vt 0.254315 0.564836
vt 0.274769 0.576645
vt 0.139267 0.654878
vt 0.811384 0.431990
vt 0.831838 0.420181
vt 0.302753 0.564836
vt 0.282299 0.576645
vt 0.254315 0.431990
vt 0.274769 0.420181
vt 0.611987 0.226653
vt 0.727036 0.293076
vt 0.727036 0.316694
vt 0.591533 0.238462
vt 0.794275 0.795254
vt 0.734554 0.795254
vt 0.734554 0.662407
vt 0.794275 0.662407
vt 0.794275 0.861677
vt 0.734554 0.861677
vt 0.543047 0.928100
vt 0.483326 0.928100
vt 0.483326 0.861677
vt 0.543047 0.861677
vt 0.483326 0.728830
vt 0.543047 0.728830
vt 0.483326 0.662407
vt 0.543047 0.662407
vt 0.990227 0.474795
vt 0.930506 0.474795
vt 0.930506 0.341948
vt 0.990227 0.341948
vt 0.417801 0.631260
vt 0.417801 0.654878
vt 0.611987 0.093806
vt 0.591533 0.081997
vt 0.518445 0.213905
vt 0.518445 0.124279
vt 0.584004 0.086428
vt 0.584004 0.251755
vt 0.363208 0.213905
vt 0.297649 0.251755
vt 0.440827 0.258718
vt 0.440827 0.334419
vt 0.118813 0.928100
vt 0.003765 0.861677
vt 0.028708 0.847276
vt 0.118813 0.899298
vt 0.233862 0.861677
vt 0.208918 0.847276
vt 0.233862 0.728830
vt 0.208918 0.743231
vt 0.118813 0.662407
vt 0.118813 0.691209
vt 0.003765 0.728830
vt 0.028708 0.743231
vt 0.118813 0.795254
vt 0.630254 0.795254
vt 0.585611 0.795253
vt 0.585611 0.662407
vt 0.630254 0.662407
vt 0.630254 0.861677
vt 0.585611 0.861677
vt 0.913037 0.607641
vt 0.868393 0.607641
vt 0.868393 0.541218
vt 0.913037 0.541218
vt 0.868393 0.408372
vt 0.913037 0.408372
vt 0.868393 0.341948
vt 0.913037 0.341948
vt 0.943738 0.136611
vt 0.899094 0.136611
vt 0.899094 0.003765
vt 0.943738 0.003765
vt 0.043914 0.109608
vt 0.146942 0.050125
vt 0.043914 0.228575
vt 0.003765 0.251755
vt 0.003765 0.086428
vt 0.146942 0.003765
vt 0.249971 0.109608
vt 0.290120 0.086428
vt 0.249971 0.228575
vt 0.290120 0.251755
vt 0.146942 0.288059
vt 0.146942 0.334419
vt 0.701826 0.795254
vt 0.701826 0.662407
vt 0.716001 0.670591
vt 0.716001 0.793208
vt 0.897778 0.880863
vt 0.897778 0.814440
vt 0.911954 0.812394
vt 0.911953 0.876771
vt 0.897778 0.681594
vt 0.911953 0.683640
vt 0.897778 0.615171
vt 0.911953 0.619263
vt 0.928479 0.276987
vt 0.928479 0.144140
vt 0.942654 0.152324
vt 0.942654 0.268803
vt 0.701826 0.861677
vt 0.716001 0.857585
vt 0.278821 0.840066
vt 0.356439 0.884880
vt 0.356439 0.911732
vt 0.255566 0.853493
vt 0.649654 0.861677
vt 0.649654 0.795254
vt 0.649654 0.662407
vt 0.434058 0.840066
vt 0.457312 0.853493
vt 0.278821 0.750440
vt 0.255566 0.737014
vt 0.845607 0.880863
vt 0.845607 0.814440
vt 0.356439 0.705627
vt 0.356439 0.678775
vt 0.845607 0.681594
vt 0.434058 0.750440
vt 0.457312 0.737014
vt 0.845607 0.615171
vt 0.876307 0.276987
vt 0.876307 0.144140
s 1
usemtl Cylinder
f 48/1/48 44/2/44 43/3/43 47/4/47
f 44/5/44 9/6/9 10/7/10 43/8/43
f 7/9/7 13/10/13 14/11/14 8/12/8
f 9/6/9 17/13/17 18/14/18 10/7/10
f 13/10/13 12/15/12 11/16/11 14/11/14
f 17/13/17 16/17/16 15/18/15 18/14/18
f 4/19/4 5/20/5 78/21/78 77/22/77
f 31/23/31 27/24/27 49/25/49 45/26/45
f 41/27/41 37/28/37 10/29/10 18/30/18
f 19/31/19 26/32/26 52/33/52 16/34/16
f 28/35/28 32/36/32 46/37/46 50/38/50
f 38/39/38 42/40/42 17/41/17 9/42/9
f 27/24/27 23/43/23 53/44/53 49/25/49
f 12/45/12 54/46/54 53/47/53 11/48/11
f 16/49/16 52/50/52 51/51/51 15/52/15
f 54/53/54 50/54/50 49/55/49 53/56/53
f 52/57/52 48/1/48 47/4/47 51/58/51
f 50/54/50 46/59/46 45/60/45 49/55/49
f 46/61/46 7/9/7 8/12/8 45/62/45
f 37/28/37 33/63/33 43/64/43 10/29/10
f 42/40/42 19/31/19 16/34/16 17/41/17
f 24/65/24 28/35/28 50/38/50 54/66/54
f 34/67/34 38/39/38 9/42/9 44/68/44
f 33/63/33 29/69/29 47/70/47 43/64/43
f 22/71/22 39/72/39 14/73/14 11/74/11
f 30/75/30 34/67/34 44/68/44 48/76/48
f 29/69/29 25/77/25 51/78/51 47/70/47
f 39/72/39 35/79/35 8/80/8 14/73/14
f 23/43/23 22/71/22 11/74/11 53/44/53
f 40/81/40 21/82/21 12/83/12 13/84/13
f 26/32/26 30/75/30 48/76/48 52/33/52
f 19/85/19 22/86/22 23/87/23 26/88/26
f 42/89/42 39/90/39 22/86/22 19/85/19
f 26/91/26 23/92/23 27/93/27 30/94/30
f 30/94/30 27/93/27 31/95/31 34/96/34
f 34/96/34 31/95/31 35/97/35 38/98/38
f 38/99/38 35/100/35 39/101/39 42/102/42
f 20/103/20 41/27/41 18/30/18 15/104/15
f 32/36/32 36/105/36 7/106/7 46/37/46
f 25/77/25 20/103/20 15/104/15 51/78/51
f 35/79/35 31/23/31 45/26/45 8/80/8
f 21/82/21 24/65/24 54/66/54 12/83/12
f 36/105/36 40/81/40 13/84/13 7/106/7
f 2/107/2 3/108/3 76/109/76 75/110/75
f 5/20/5 6/111/6 79/112/79 78/21/78
f 3/108/3 4/19/4 77/22/77 76/109/76
f 1/113/1 2/107/2 75/110/75 74/114/74
f 6/111/6 1/113/1 74/114/74 79/112/79
f 65/115/65 62/116/62 63/117/63 64/118/64
f 67/119/67 65/115/65 64/118/64 66/120/66
f 69/121/69 67/119/67 66/120/66 68/122/68
f 71/123/71 69/121/69 68/122/68 70/124/70
f 73/125/73 71/123/71 70/124/70 72/126/72
f 62/116/62 73/125/73 72/126/72 63/117/63
f 64/118/64 63/117/63 61/127/61
f 21/128/21 62/129/62 65/130/65 24/131/24
f 63/117/63 72/126/72 61/127/61
f 40/132/40 73/133/73 62/129/62 21/128/21
f 24/134/24 65/135/65 67/136/67 28/137/28
f 66/120/66 64/118/64 61/127/61
f 68/122/68 66/120/66 61/127/61
f 28/137/28 67/136/67 69/138/69 32/139/32
f 32/139/32 69/138/69 71/140/71 36/141/36
f 70/124/70 68/122/68 61/127/61
f 36/142/36 71/143/71 73/144/73 40/145/40
f 72/126/72 70/124/70 61/127/61
f 56/146/56 57/147/57 82/147/82 81/146/81
f 56/146/56 55/148/55 74/149/74 75/150/75
f 57/147/57 56/146/56 75/150/75 76/151/76
f 58/152/58 57/147/57 76/151/76 77/153/77
f 59/154/59 58/152/58 77/153/77 78/155/78
f 60/156/60 59/154/59 78/155/78 79/157/79
f 55/148/55 60/156/60 79/157/79 74/149/74
f 80/148/80 81/146/81 82/147/82 83/152/83
f 59/154/59 60/156/60 85/156/85 84/154/84
f 57/147/57 58/152/58 83/152/83 82/147/82
f 55/148/55 56/146/56 81/146/81 80/148/80
f 60/156/60 55/148/55 80/148/80 85/156/85
f 58/152/58 59/154/59 84/154/84 83/152/83
f 85/156/85 80/148/80 83/152/83 84/154/84
f 87/158/87 88/159/88 89/160/89 86/161/86
f 88/162/88 90/163/90 91/164/91 89/165/89
f 90/163/90 92/166/92 93/167/93 91/164/91
f 92/166/92 94/168/94 95/169/95 93/167/93
f 94/170/94 96/171/96 97/172/97 95/173/95
f 96/174/96 87/158/87 86/161/86 97/175/97
f 2/176/2 1/177/1 86/178/86 89/179/89
f 96/174/96 41/180/41 20/181/20 87/158/87
f 87/158/87 20/181/20 25/182/25 88/159/88
f 1/177/1 6/183/6 97/184/97 86/178/86
f 3/185/3 2/176/2 89/179/89 91/186/91
f 88/162/88 25/187/25 29/188/29 90/163/90
f 4/189/4 3/185/3 91/186/91 93/190/93
f 90/163/90 29/188/29 33/191/33 92/166/92
f 5/192/5 4/189/4 93/190/93 95/193/95
f 92/166/92 33/191/33 37/194/37 94/168/94
f 6/183/6 5/192/5 95/193/95 97/184/97
f 94/170/94 37/195/37 41/196/41 96/171/96
