# Blender 4.5.3 LTS
# www.blender.org
mtllib sm_debree1.mtl
o Cube_cell.092
v -0.350716 0.075034 0.366639
v -0.409014 -0.088593 -0.142013
v -0.403379 -0.072112 0.230211
v -0.369194 0.025050 -0.345826
v -0.007978 -0.289298 -0.457250
v -0.234345 0.000266 -0.505487
v -0.090607 -0.167165 0.357485
v 0.249808 0.000777 0.220960
v 0.064337 -0.206153 0.324728
v 0.029525 -0.346130 -0.436776
v 0.292007 0.117478 0.093637
v 0.328493 -0.008249 0.081694
v 0.235594 -0.511055 -0.256251
v -0.239804 -0.370993 -0.021332
v -0.282830 -0.284075 0.156427
v -0.072717 -0.452622 -0.156037
v -0.114860 -0.237588 0.293614
v 0.061159 -0.268588 0.268944
v 0.214792 -0.518126 -0.229254
v -0.262062 0.225134 -0.354851
v -0.297525 0.225134 -0.315537
v -0.296959 0.225134 0.312830
v 0.144100 0.225134 -0.041432
v 0.160642 0.225134 -0.021254
v 0.087297 0.225134 -0.092832
v -0.235089 0.225134 -0.384130
v 0.068863 0.225134 0.212644
v 0.216711 0.225134 0.172052
v 0.224990 0.225134 0.169406
v 0.235615 0.225134 0.139635
v 0.237273 0.225134 0.147005
v 0.213207 0.225134 0.043764
v 0.165126 0.225134 -0.015770
v 0.203472 0.225134 0.031461
v 0.234067 0.225134 0.152891
v -0.262062 0.225134 -0.354851
v -0.297525 0.225134 -0.315537
v -0.296959 0.225134 0.312830
v 0.144100 0.225134 -0.041432
v 0.160642 0.225134 -0.021254
v 0.087297 0.225134 -0.092832
v -0.235089 0.225134 -0.384130
v 0.068863 0.225134 0.212644
v 0.216711 0.225134 0.172052
v 0.224990 0.225134 0.169406
v 0.235615 0.225134 0.139635
v 0.237273 0.225134 0.147005
v 0.213207 0.225134 0.043764
v 0.165126 0.225134 -0.015770
v 0.203472 0.225134 0.031461
v 0.234067 0.225134 0.152891
vn -0.6970 0.3448 -0.6287
vn -0.9415 0.3371 0.0010
vn 0.7440 0.2731 -0.6099
vn 0.6228 0.3722 -0.6882
vn 0.6219 0.3735 -0.6883
vn -0.6913 0.3414 -0.6368
vn -0.6586 -0.5922 -0.4643
vn -0.6588 -0.5929 -0.4631
vn -0.6607 -0.5930 -0.4602
vn -0.6613 -0.5927 -0.4597
vn -0.9439 0.3302 -0.0003
vn -0.4551 -0.5123 0.7283
vn -0.4536 -0.5125 0.7291
vn -0.4493 -0.5103 0.7333
vn 0.2568 0.2404 0.9361
vn 0.2569 0.2419 0.9357
vn 0.2562 0.2436 0.9354
vn 0.2952 0.2449 0.9235
vn 0.8348 0.5175 -0.1877
vn 0.8323 0.5191 -0.1945
vn 0.7449 0.2721 -0.6091
vn 0.7538 0.2754 -0.5965
vn -0.6529 -0.5982 -0.4647
vn -0.0985 -0.9020 0.4203
vn -0.1059 -0.9032 0.4160
vn -0.3036 -0.8489 -0.4326
vn -0.8630 -0.5038 0.0375
vn -0.8638 -0.5025 0.0353
vn -0.0987 -0.8995 0.4257
vn -0.0973 -0.9016 0.4216
vn -0.0137 -0.6691 0.7430
vn 0.2579 0.2384 0.9363
vn -0.0099 -0.6660 0.7459
vn 0.8581 0.2033 0.4716
vn -0.0000 1.0000 -0.0000
vn 0.7642 -0.4511 0.4610
vn 0.8596 0.2050 0.4681
vn 0.7578 -0.4591 0.4636
vn -0.2890 -0.8478 -0.4447
vn 0.7630 -0.4520 0.4621
vn 0.7476 0.2698 -0.6069
vn -0.9415 0.3371 -0.0002
vn -0.9416 0.3369 0.0008
vt 1.000000 0.000000
vt 1.000000 0.799225
vt 0.200151 0.000000
vt 0.799225 0.799225
vt 1.000000 1.000000
vt 0.000000 0.000000
vt 1.000000 0.911321
vt 0.087942 0.000000
vt 0.911321 0.911321
vt 1.000000 0.817920
vt 0.817920 0.817920
vt 0.817892 0.000000
vt 1.000000 0.799849
vt 0.817891 0.817891
vt 1.000000 0.250773
vt 0.817042 0.000000
vt 1.000000 0.248068
vt 0.250773 0.250773
vt 0.879025 0.000000
vt 0.817042 0.817042
vt 1.000000 0.681818
vt 0.222884 0.000000
vt 0.684582 0.000000
vt 0.681818 0.681818
vt 1.000000 0.912058
vt 0.920108 0.920108
vt 0.684582 0.684582
vt 1.000000 0.824718
vt 1.000000 0.120975
vt 0.883157 0.000000
vt 0.786831 0.704289
vt 0.784661 0.701894
vt 0.784467 0.700237
vt 1.000000 0.777116
vt 0.883157 0.883157
vt 1.000000 0.920108
vt 0.751932 0.000000
vt 0.803007 0.671179
vt 0.843306 0.634767
vt 0.846677 0.638427
vt 0.851110 0.643341
vt 0.851039 0.721887
vt 0.805312 0.709363
vt 0.787269 0.688254
vt 0.795907 0.677604
vt 0.785796 0.703959
vt 0.784260 0.701159
vt 0.788485 0.686716
vt 0.793279 0.680812
vt 0.793839 0.680126
vt 0.824718 0.824718
s 0
f 4/1/1 37/2/1 36/3/1
f 37/4/2 4/5/2 3/6/2
f 39/7/3 40/8/3 5/1/3
f 39/9/4 5/6/4 6/1/4 41/10/4
f 41/11/5 6/6/5 42/12/5
f 6/6/6 4/1/6 36/13/6 42/14/6
f 6/6/7 5/1/7 4/5/7
f 5/6/8 16/1/8 4/5/8
f 16/6/9 14/1/9 4/5/9
f 14/6/10 2/1/10 4/5/10
f 2/6/11 3/1/11 4/5/11
f 3/6/12 15/1/12 1/5/12
f 15/6/13 17/1/13 1/5/13
f 17/6/14 7/1/14 1/5/14
f 7/6/15 8/1/15 1/5/15
f 43/15/16 1/5/16 8/6/16 44/16/16
f 38/17/17 1/5/17 43/18/17
f 8/6/18 45/19/18 44/20/18
f 46/21/19 47/22/19 11/1/19
f 11/6/20 48/23/20 46/24/20
f 10/6/21 5/1/21 40/25/21 49/26/21
f 48/27/22 11/6/22 12/1/22 50/28/22
f 10/6/23 16/1/23 5/5/23
f 19/6/24 15/1/24 16/5/24
f 15/6/25 14/1/25 16/5/25
f 10/6/26 19/1/26 16/5/26
f 15/6/27 3/1/27 14/5/27
f 3/6/28 2/1/28 14/5/28
f 18/6/29 17/1/29 15/5/29
f 19/6/30 18/1/30 15/5/30
f 18/6/31 7/1/31 17/5/31
f 9/6/32 8/1/32 7/5/32
f 18/6/33 9/1/33 7/5/33
f 45/29/34 8/5/34 12/6/34 51/30/34
f 28/31/35 35/32/35 30/33/35
f 13/6/36 12/1/36 8/5/36
f 12/6/37 11/1/37 47/34/37 51/35/37
f 18/6/38 19/1/38 13/5/38
f 19/6/39 10/1/39 13/5/39
f 18/6/40 13/1/40 8/5/40 9/6/40
f 12/6/41 10/1/41 49/36/41
f 3/6/42 1/6/42 38/37/42
f 38/37/43 37/4/43 3/6/43
f 25/38/35 26/39/35 20/40/35
f 20/40/35 21/41/35 25/38/35
f 21/41/35 22/42/35 25/38/35
f 22/42/35 27/43/35 25/38/35
f 27/43/35 28/31/35 32/44/35
f 25/38/35 27/43/35 23/45/35
f 28/31/35 29/46/35 35/32/35
f 35/32/35 31/47/35 30/33/35
f 30/33/35 32/44/35 28/31/35
f 32/44/35 34/48/35 27/43/35
f 34/48/35 33/49/35 27/43/35
f 33/49/35 24/50/35 27/43/35
f 24/50/35 23/45/35 27/43/35
f 49/36/41 50/51/41 12/6/41
f 12/6/41 13/6/41 10/1/41
