# Blender 4.5.3 LTS
# www.blender.org
mtllib beam.mtl
o Cylinder
v -0.000000 0.000000 0.000000
v -0.000000 -0.000000 2.000000
v 0.500000 0.866025 2.000000
v 0.000000 1.000000 2.000000
v 0.866025 0.500000 2.000000
v 1.000000 -0.000000 2.000000
v 0.866025 -0.500000 2.000000
v 0.500000 -0.866025 2.000000
v 0.000000 -1.000000 2.000000
v -0.500000 -0.866025 2.000000
v -0.866025 -0.500000 2.000000
v -1.000000 -0.000000 2.000000
v -0.866025 0.500000 2.000000
v -0.500000 0.866025 2.000000
v 0.000000 1.000000 0.000000
v 0.500000 0.866025 0.000000
v 0.866025 0.500000 0.000000
v 1.000000 0.000000 0.000000
v 0.866025 -0.500000 -0.000000
v 0.500000 -0.866025 -0.000000
v 0.000000 -1.000000 -0.000000
v -0.500000 -0.866025 -0.000000
v -0.866025 -0.500000 -0.000000
v -1.000000 0.000000 0.000000
v -0.866025 0.500000 0.000000
v -0.500000 0.866025 0.000000
vn -0.0000 -0.0000 -1.0000
vn -0.0000 -0.0000 1.0000
vn 0.3786 0.6557 0.6532
vn -0.0000 0.7572 0.6532
vn 0.6557 0.3786 0.6532
vn 0.7572 -0.0000 0.6532
vn 0.6557 -0.3786 0.6532
vn 0.3786 -0.6557 0.6532
vn -0.0000 -0.7572 0.6532
vn -0.3786 -0.6557 0.6532
vn -0.6557 -0.3786 0.6532
vn -0.7572 -0.0000 0.6532
vn -0.6557 0.3786 0.6532
vn -0.3786 0.6557 0.6532
vn -0.0000 0.7572 -0.6532
vn 0.3786 0.6557 -0.6532
vn 0.6557 0.3786 -0.6532
vn 0.7572 -0.0000 -0.6532
vn 0.6557 -0.3786 -0.6532
vn 0.3786 -0.6557 -0.6532
vn -0.0000 -0.7572 -0.6532
vn -0.3786 -0.6557 -0.6532
vn -0.6557 -0.3786 -0.6532
vn -0.7572 -0.0000 -0.6532
vn -0.6557 0.3786 -0.6532
vn -0.3786 0.6557 -0.6532
vt 0.505143 0.041573
vt 0.495044 0.967728
vt 0.419836 0.966933
vt 0.430089 0.040780
vt 0.342373 0.966115
vt 0.352763 0.039963
vt 0.261891 0.965265
vt 0.271847 0.039108
vt 0.178311 0.964381
vt 0.186791 0.038209
vt 0.091515 0.963464
vt 0.096908 0.037259
vt 0.000187 0.962499
vt 0.000187 0.036237
vt 1.000000 0.046802
vt 1.000000 0.973064
vt 0.903280 0.972042
vt 0.908672 0.045837
vt 0.813396 0.971092
vt 0.821876 0.044920
vt 0.728340 0.970194
vt 0.738297 0.044037
vt 0.647424 0.969338
vt 0.657815 0.043186
vt 0.570099 0.968521
vt 0.580351 0.042368
vt 0.493335 1.000000
vt 0.506852 0.000000
s 1
f 15/1/15 4/2/4 3/3/3 16/4/16
f 16/4/16 3/3/3 5/5/5 17/6/17
f 17/6/17 5/5/5 6/7/6 18/8/18
f 18/8/18 6/7/6 7/9/7 19/10/19
f 19/10/19 7/9/7 8/11/8 20/12/20
f 20/12/20 8/11/8 9/13/9 21/14/21
f 21/15/21 9/16/9 10/17/10 22/18/22
f 22/18/22 10/17/10 11/19/11 23/20/23
f 23/20/23 11/19/11 12/21/12 24/22/24
f 24/22/24 12/21/12 13/23/13 25/24/25
f 25/24/25 13/23/13 14/25/14 26/26/26
f 26/26/26 14/25/14 4/2/4 15/1/15
f 2/27/2 3/3/3 4/2/4
f 2/27/2 5/5/5 3/3/3
f 2/27/2 6/7/6 5/5/5
f 2/27/2 7/9/7 6/7/6
f 2/27/2 8/11/8 7/9/7
f 2/27/2 9/13/9 8/11/8
f 2/27/2 10/17/10 9/16/9
f 2/27/2 11/19/11 10/17/10
f 2/27/2 12/21/12 11/19/11
f 2/27/2 13/23/13 12/21/12
f 2/27/2 14/25/14 13/23/13
f 2/27/2 4/2/4 14/25/14
f 1/28/1 15/1/15 16/4/16
f 1/28/1 16/4/16 17/6/17
f 1/28/1 17/6/17 18/8/18
f 1/28/1 18/8/18 19/10/19
f 1/28/1 19/10/19 20/12/20
f 1/28/1 20/12/20 21/14/21
f 1/28/1 21/15/21 22/18/22
f 1/28/1 22/18/22 23/20/23
f 1/28/1 23/20/23 24/22/24
f 1/28/1 24/22/24 25/24/25
f 1/28/1 25/24/25 26/26/26
f 1/28/1 26/26/26 15/1/15
