# Blender 4.5.3 LTS
# www.blender.org
mtllib fireball_mesh.mtl
o Sphere
v 0.000000 0.707107 0.445075
v 0.000000 0.889629 -1.078503
v 0.129410 0.224144 0.965926
v 0.250000 0.433013 0.866025
v 0.353553 0.612372 0.445075
v 0.433013 0.750000 -0.390633
v 0.444815 0.770441 -1.078503
v 0.409640 0.709518 -1.880742
v 0.224144 0.129409 0.965926
v 0.433013 0.250000 0.866025
v 0.612372 0.353553 0.445075
v 0.750000 0.433013 -0.390633
v 0.770441 0.444815 -1.078503
v 0.709518 0.409640 -1.880742
v 0.258819 -0.000000 0.965926
v 0.500000 -0.000000 0.866025
v 0.707107 -0.000000 0.445075
v 0.866025 -0.000000 -0.390633
v 0.889629 -0.000000 -1.078503
v 0.819281 0.000000 -1.880742
v 0.224144 -0.129410 0.965926
v 0.433013 -0.250000 0.866025
v 0.612372 -0.353553 0.445075
v 0.750000 -0.433013 -0.390633
v 0.770441 -0.444815 -1.078503
v 0.709518 -0.409640 -1.880742
v 0.129410 -0.224144 0.965926
v 0.250000 -0.433013 0.866025
v 0.353553 -0.612372 0.445075
v 0.433013 -0.750000 -0.390633
v 0.444815 -0.770441 -1.078503
v 0.409640 -0.709518 -1.880742
v 0.000000 -0.258819 0.965926
v 0.000000 -0.500000 0.866025
v -0.000000 -0.707107 0.445075
v -0.000000 -0.866025 -0.390633
v -0.000000 -0.889629 -1.078503
v 0.000000 -0.819281 -1.880742
v -0.129410 -0.224144 0.965926
v -0.250000 -0.433013 0.866025
v -0.353553 -0.612372 0.445075
v -0.433013 -0.750000 -0.390633
v -0.444815 -0.770441 -1.078503
v -0.409640 -0.709518 -1.880742
v -0.224144 -0.129410 0.965926
v -0.433013 -0.250000 0.866025
v -0.612372 -0.353553 0.445075
v -0.750000 -0.433013 -0.390633
v -0.770441 -0.444814 -1.078503
v -0.709518 -0.409640 -1.880742
v 0.000000 -0.000000 1.000000
v -0.258819 -0.000000 0.965926
v -0.500000 -0.000000 0.866025
v -0.707107 0.000000 0.445075
v -0.866025 0.000000 -0.390633
v -0.889629 0.000000 -1.078503
v -0.819281 0.000000 -1.880742
v -0.224144 0.129409 0.965926
v -0.433013 0.250000 0.866025
v -0.612372 0.353553 0.445075
v -0.750000 0.433013 -0.390633
v -0.770441 0.444815 -1.078503
v -0.709518 0.409640 -1.880742
v -0.129410 0.224144 0.965926
v -0.250000 0.433013 0.866025
v -0.353553 0.612372 0.445075
v -0.433013 0.750000 -0.390633
v -0.444814 0.770441 -1.078503
v -0.409640 0.709518 -1.880742
v 0.000000 0.258819 0.965926
v 0.000000 0.500000 0.866025
v 0.000000 0.866025 -0.390632
v 0.000000 0.819281 -1.880742
vn 0.2546 0.9500 0.1807
vn 0.0350 0.1304 0.9908
vn 0.2587 0.9654 0.0331
vn 0.1020 0.3807 0.9191
vn 0.2579 0.9625 -0.0844
vn 0.2338 0.8724 0.4292
vn 0.7067 0.7067 0.0331
vn 0.2787 0.2787 0.9191
vn 0.7046 0.7046 -0.0844
vn 0.6387 0.6387 0.4292
vn 0.6955 0.6955 0.1807
vn 0.0955 0.0955 0.9908
vn 0.9500 0.2546 0.1807
vn 0.1304 0.0350 0.9908
vn 0.9654 0.2587 0.0331
vn 0.3807 0.1020 0.9191
vn 0.9625 0.2579 -0.0844
vn 0.8724 0.2338 0.4292
vn 0.9625 -0.2579 -0.0844
vn 0.8724 -0.2338 0.4292
vn 0.9500 -0.2546 0.1807
vn 0.1304 -0.0350 0.9908
vn 0.9654 -0.2587 0.0331
vn 0.3807 -0.1020 0.9191
vn 0.7067 -0.7067 0.0331
vn 0.2787 -0.2787 0.9191
vn 0.7046 -0.7046 -0.0844
vn 0.6387 -0.6387 0.4292
vn 0.6955 -0.6955 0.1807
vn 0.0955 -0.0955 0.9908
vn 0.2546 -0.9500 0.1807
vn 0.0350 -0.1304 0.9908
vn 0.2587 -0.9654 0.0331
vn 0.1020 -0.3807 0.9191
vn 0.2579 -0.9625 -0.0844
vn 0.2338 -0.8724 0.4292
vn -0.2579 -0.9625 -0.0844
vn -0.2338 -0.8724 0.4292
vn -0.2546 -0.9500 0.1807
vn -0.0350 -0.1304 0.9908
vn -0.2587 -0.9654 0.0331
vn -0.1020 -0.3807 0.9191
vn -0.0955 -0.0955 0.9908
vn -0.7067 -0.7067 0.0331
vn -0.2787 -0.2787 0.9191
vn -0.7046 -0.7046 -0.0844
vn -0.6387 -0.6387 0.4292
vn -0.6955 -0.6955 0.1807
vn -0.9500 -0.2546 0.1807
vn -0.1304 -0.0350 0.9908
vn -0.9654 -0.2587 0.0331
vn -0.3807 -0.1020 0.9191
vn -0.9625 -0.2579 -0.0844
vn -0.8724 -0.2338 0.4292
vn -0.3807 0.1020 0.9191
vn -0.9625 0.2579 -0.0844
vn -0.8724 0.2338 0.4292
vn -0.9500 0.2546 0.1807
vn -0.1304 0.0350 0.9908
vn -0.9654 0.2587 0.0331
vn -0.0955 0.0955 0.9908
vn -0.7067 0.7067 0.0331
vn -0.2787 0.2787 0.9191
vn -0.7046 0.7046 -0.0844
vn -0.6387 0.6387 0.4292
vn -0.6955 0.6955 0.1807
vn -0.2338 0.8724 0.4292
vn -0.2546 0.9500 0.1807
vn -0.0350 0.1304 0.9908
vn -0.2587 0.9654 0.0331
vn -0.1020 0.3807 0.9191
vn -0.2579 0.9625 -0.0844
vt 0.250001 0.660009
vt 0.250001 0.495007
vt 0.333335 0.495007
vt 0.333335 0.660009
vt 0.250002 0.165002
vt 0.291668 0.006201
vt 0.333335 0.165002
vt 0.250001 0.779008
vt 0.333335 0.779008
vt 0.250001 0.330004
vt 0.333335 0.330004
vt 0.250002 1.000000
vt 0.333335 1.000000
vt 0.416668 0.660009
vt 0.416668 0.779009
vt 0.416668 0.165002
vt 0.416668 0.330004
vt 0.416668 1.000000
vt 0.416668 0.495006
vt 0.375001 0.006201
vt 0.500001 0.495007
vt 0.500001 0.660009
vt 0.458334 0.006201
vt 0.500001 0.165002
vt 0.500001 0.779008
vt 0.500001 0.330004
vt 0.500001 1.000000
vt 0.583334 0.779008
vt 0.583334 1.000000
vt 0.583334 0.330004
vt 0.583334 0.495007
vt 0.583334 0.660009
vt 0.541668 0.006201
vt 0.583334 0.165002
vt 0.666667 0.660009
vt 0.666667 0.779008
vt 0.666667 0.165002
vt 0.666667 0.330004
vt 0.666667 1.000000
vt 0.666667 0.495006
vt 0.625001 0.006201
vt 0.750000 0.495007
vt 0.750001 0.660009
vt 0.708334 0.006201
vt 0.750000 0.165002
vt 0.750001 0.779008
vt 0.750000 0.330004
vt 0.750001 1.000000
vt 0.833334 0.779008
vt 0.833334 1.000000
vt 0.833334 0.330004
vt 0.833334 0.495006
vt 0.833334 0.660009
vt 0.791667 0.006201
vt 0.833334 0.165002
vt 0.875000 0.006201
vt 0.916667 0.165002
vt 0.916667 0.660009
vt 0.916667 0.779008
vt 0.916667 0.330004
vt 0.916667 1.000000
vt 0.916667 0.495007
vt 1.000000 0.495006
vt 1.000000 0.660009
vt 0.958333 0.006201
vt 1.000000 0.165002
vt 1.000000 0.779008
vt 1.000000 0.330004
vt 1.000000 1.000000
vt 0.000002 0.330005
vt 0.000002 0.165002
vt 0.083335 0.165002
vt 0.083335 0.330004
vt 0.000002 1.000000
vt 0.000002 0.779009
vt 0.083335 0.779008
vt 0.083335 1.000000
vt 0.000002 0.495007
vt 0.083335 0.495007
vt 0.000002 0.660009
vt 0.083335 0.660009
vt 0.041669 0.006201
vt 0.125002 0.006201
vt 0.166668 0.165002
vt 0.166668 0.660009
vt 0.166668 0.779008
vt 0.166668 0.330004
vt 0.166668 1.000000
vt 0.166668 0.495007
vt 0.208335 0.006201
s 0
f 72/1/1 1/2/1 5/3/1 6/4/1
f 70/5/2 51/6/2 3/7/2
f 2/8/3 72/1/3 6/4/3 7/9/3
f 71/10/4 70/5/4 3/7/4 4/11/4
f 73/12/5 2/8/5 7/9/5 8/13/5
f 1/2/6 71/10/6 4/11/6 5/3/6
f 7/9/7 6/4/7 12/14/7 13/15/7
f 4/11/8 3/7/8 9/16/8 10/17/8
f 8/13/9 7/9/9 13/15/9 14/18/9
f 5/3/10 4/11/10 10/17/10 11/19/10
f 6/4/11 5/3/11 11/19/11 12/14/11
f 3/7/12 51/20/12 9/16/12
f 12/14/13 11/19/13 17/21/13 18/22/13
f 9/16/14 51/23/14 15/24/14
f 13/15/15 12/14/15 18/22/15 19/25/15
f 10/17/16 9/16/16 15/24/16 16/26/16
f 14/18/17 13/15/17 19/25/17 20/27/17
f 11/19/18 10/17/18 16/26/18 17/21/18
f 20/27/19 19/25/19 25/28/19 26/29/19
f 17/21/20 16/26/20 22/30/20 23/31/20
f 18/22/21 17/21/21 23/31/21 24/32/21
f 15/24/22 51/33/22 21/34/22
f 19/25/23 18/22/23 24/32/23 25/28/23
f 16/26/24 15/24/24 21/34/24 22/30/24
f 25/28/25 24/32/25 30/35/25 31/36/25
f 22/30/26 21/34/26 27/37/26 28/38/26
f 26/29/27 25/28/27 31/36/27 32/39/27
f 23/31/28 22/30/28 28/38/28 29/40/28
f 24/32/29 23/31/29 29/40/29 30/35/29
f 21/34/30 51/41/30 27/37/30
f 30/35/31 29/40/31 35/42/31 36/43/31
f 27/37/32 51/44/32 33/45/32
f 31/36/33 30/35/33 36/43/33 37/46/33
f 28/38/34 27/37/34 33/45/34 34/47/34
f 32/39/35 31/36/35 37/46/35 38/48/35
f 29/40/36 28/38/36 34/47/36 35/42/36
f 38/48/37 37/46/37 43/49/37 44/50/37
f 35/42/38 34/47/38 40/51/38 41/52/38
f 36/43/39 35/42/39 41/52/39 42/53/39
f 33/45/40 51/54/40 39/55/40
f 37/46/41 36/43/41 42/53/41 43/49/41
f 34/47/42 33/45/42 39/55/42 40/51/42
f 39/55/43 51/56/43 45/57/43
f 43/49/44 42/53/44 48/58/44 49/59/44
f 40/51/45 39/55/45 45/57/45 46/60/45
f 44/50/46 43/49/46 49/59/46 50/61/46
f 41/52/47 40/51/47 46/60/47 47/62/47
f 42/53/48 41/52/48 47/62/48 48/58/48
f 48/58/49 47/62/49 54/63/49 55/64/49
f 45/57/50 51/65/50 52/66/50
f 49/59/51 48/58/51 55/64/51 56/67/51
f 46/60/52 45/57/52 52/66/52 53/68/52
f 50/61/53 49/59/53 56/67/53 57/69/53
f 47/62/54 46/60/54 53/68/54 54/63/54
f 53/70/55 52/71/55 58/72/55 59/73/55
f 57/74/56 56/75/56 62/76/56 63/77/56
f 54/78/57 53/70/57 59/73/57 60/79/57
f 55/80/58 54/78/58 60/79/58 61/81/58
f 52/71/59 51/82/59 58/72/59
f 56/75/60 55/80/60 61/81/60 62/76/60
f 58/72/61 51/83/61 64/84/61
f 62/76/62 61/81/62 67/85/62 68/86/62
f 59/73/63 58/72/63 64/84/63 65/87/63
f 63/77/64 62/76/64 68/86/64 69/88/64
f 60/79/65 59/73/65 65/87/65 66/89/65
f 61/81/66 60/79/66 66/89/66 67/85/66
f 66/89/67 65/87/67 71/10/67 1/2/67
f 67/85/68 66/89/68 1/2/68 72/1/68
f 64/84/69 51/90/69 70/5/69
f 68/86/70 67/85/70 72/1/70 2/8/70
f 65/87/71 64/84/71 70/5/71 71/10/71
f 69/88/72 68/86/72 2/8/72 73/12/72
