# Blender 4.5.3 LTS
# www.blender.org
mtllib nature_leaf.mtl
o Leaf
v -0.009836 0.000000 0.008540
v 0.009837 0.000000 0.008540
v -0.009836 0.000000 -0.008586
v 0.009837 0.000000 -0.008586
v -0.014053 0.000000 -0.000021
v -0.000001 0.075005 0.012670
v 0.014057 0.000000 -0.000025
v 0.000004 0.082872 -0.011865
v 0.000000 0.000000 0.000000
v -0.009574 0.083394 -0.008660
v -0.013728 0.082868 -0.000533
v -0.010165 0.078282 0.008386
v -0.000000 0.000000 0.011886
v 0.010166 0.078282 0.008386
v 0.013732 0.082868 -0.000537
v 0.009575 0.083394 -0.008660
v 0.000004 0.000000 -0.011933
v 0.000000 0.082872 0.000000
v -0.037839 0.101946 -0.016428
v -0.043480 0.101862 -0.001171
v -0.037999 0.100807 0.013668
v 0.037999 0.100807 0.013668
v 0.043480 0.101862 -0.001172
v 0.037839 0.101946 -0.016428
v -0.049849 0.137618 -0.018767
v -0.055944 0.137512 -0.001511
v -0.049849 0.137618 0.014827
v 0.049849 0.137618 0.014827
v 0.055944 0.137512 -0.001511
v 0.049849 0.137618 -0.018767
v -0.052974 0.183301 -0.019787
v -0.059254 0.183428 -0.001819
v -0.052825 0.183638 0.015110
v 0.052825 0.183638 0.015110
v 0.059254 0.183428 -0.001819
v 0.052974 0.183301 -0.019787
v -0.035167 0.226981 -0.018915
v -0.040732 0.228699 -0.002014
v -0.035167 0.226981 0.014679
v 0.035167 0.226981 0.014679
v 0.040732 0.228699 -0.002014
v 0.035167 0.226981 -0.018915
v 0.000000 0.277190 -0.014740
v 0.000000 0.285482 -0.001951
v 0.000000 0.277490 0.009142
v -0.000000 0.206743 -0.025066
v -0.000000 0.171781 -0.025227
v 0.000000 0.121911 -0.022969
v 0.000002 0.092569 -0.016321
v -0.000000 0.214878 0.004871
v -0.000000 0.171962 0.004735
v -0.000000 0.120194 0.008922
v -0.000000 0.092417 0.012017
vn -0.0185 0.8674 0.4972
vn 0.3570 -0.0046 0.9341
vn -0.3571 -0.0046 0.9341
vn 0.9134 0.0017 0.4071
vn -0.8939 0.0016 -0.4482
vn 0.8937 0.0016 -0.4487
vn 0.0186 0.8674 0.4973
vn -0.9134 0.0017 0.4070
vn 0.5043 -0.8314 -0.2331
vn -0.5830 -0.8119 0.0291
vn 0.5831 -0.8119 0.0292
vn -0.5043 -0.8315 -0.2330
vn 0.8912 -0.3180 -0.3236
vn -0.8960 -0.3043 0.3234
vn 0.8960 -0.3043 0.3234
vn -0.8912 -0.3180 -0.3235
vn 0.9338 -0.0638 0.3521
vn -0.9411 -0.0709 -0.3306
vn 0.9411 -0.0709 -0.3306
vn -0.9338 -0.0638 0.3521
vn -0.8772 0.3607 -0.3171
vn 0.8772 0.3607 -0.3171
vn -0.8738 0.3591 0.3278
vn 0.8738 0.3591 0.3278
vn 0.7578 0.5537 0.3452
vn -0.7637 0.5548 -0.3302
vn 0.7637 0.5548 -0.3302
vn -0.7578 0.5537 0.3452
vn 0.3199 0.0005 -0.9475
vn -0.3197 0.0005 -0.9475
vn -0.0259 0.9992 0.0317
vn 0.0259 0.9992 0.0317
vn -0.2469 -0.0659 0.9668
vn 0.0974 -0.1813 0.9786
vn -0.0996 0.0481 0.9939
vn -0.1687 0.0444 0.9847
vn -0.2130 -0.0403 0.9762
vn -0.0892 0.1444 -0.9855
vn -0.1163 0.0394 -0.9924
vn -0.1031 -0.0375 -0.9940
vn -0.0896 -0.1526 -0.9842
vn -0.1643 -0.5256 -0.8348
vn 0.0896 -0.1526 -0.9842
vn 0.1031 -0.0375 -0.9940
vn 0.1163 0.0394 -0.9924
vn 0.0892 0.1444 -0.9855
vn 0.1643 -0.5256 -0.8347
vn 0.0996 0.0481 0.9939
vn 0.1687 0.0444 0.9847
vn 0.2130 -0.0403 0.9762
vn 0.2469 -0.0659 0.9668
vn -0.0974 -0.1813 0.9786
vn -0.0000 -1.0000 -0.0000
vt 0.000000 0.000000
vt 1.000000 0.000000
vt 1.000000 0.500000
vt 0.000000 1.000000
vt 0.000000 0.500000
vt 1.000000 1.000000
vt 0.000000 1.000000
vt 1.000000 0.500000
vt 1.000000 0.000000
s 0
f 18/1/1 6/1/1 14/1/1 15/1/1
f 13/1/2 2/2/2 14/2/2 6/1/2
f 13/1/3 6/1/3 12/1/3 1/1/3
f 2/2/4 7/3/4 15/3/4 14/2/4
f 3/4/5 5/5/5 11/5/5 10/4/5
f 7/3/6 4/6/6 16/6/6 15/3/6
f 6/1/7 18/1/7 11/1/7 12/1/7
f 5/5/8 1/1/8 12/1/8 11/5/8
f 15/3/9 16/6/9 24/6/9 23/3/9
f 11/5/10 12/1/10 21/1/10 20/5/10
f 14/2/11 15/3/11 23/3/11 22/2/11
f 10/4/12 11/5/12 20/5/12 19/4/12
f 23/3/13 24/6/13 30/6/13 29/3/13
f 20/5/14 21/1/14 27/1/14 26/5/14
f 22/2/15 23/3/15 29/3/15 28/2/15
f 19/4/16 20/5/16 26/5/16 25/4/16
f 28/2/17 29/3/17 35/3/17 34/2/17
f 25/4/18 26/5/18 32/5/18 31/4/18
f 29/3/19 30/6/19 36/6/19 35/3/19
f 26/5/20 27/1/20 33/1/20 32/5/20
f 31/4/21 32/5/21 38/5/21 37/7/21
f 35/3/22 36/6/22 42/6/22 41/8/22
f 32/5/23 33/1/23 39/1/23 38/5/23
f 34/2/24 35/3/24 41/8/24 40/9/24
f 40/9/25 41/8/25 44/3/25 45/2/25
f 37/7/26 38/5/26 44/5/26 43/4/26
f 41/8/27 42/6/27 43/6/27 44/3/27
f 38/5/28 39/1/28 45/1/28 44/5/28
f 8/1/29 16/6/29 4/6/29 17/1/29
f 17/1/30 3/4/30 10/4/30 8/1/30
f 16/1/31 8/1/31 18/1/31 15/1/31
f 8/1/32 10/1/32 11/1/32 18/1/32
f 50/1/33 40/1/33 45/1/33
f 6/1/34 14/1/34 22/1/34 53/1/34
f 53/1/35 22/1/35 28/1/35 52/1/35
f 52/1/36 28/1/36 34/1/36 51/1/36
f 51/1/37 34/1/37 40/1/37 50/1/37
f 46/1/38 37/1/38 43/1/38
f 47/1/39 31/1/39 37/1/39 46/1/39
f 48/1/40 25/1/40 31/1/40 47/1/40
f 49/1/41 19/1/41 25/1/41 48/1/41
f 8/1/42 10/1/42 19/1/42 49/1/42
f 24/1/43 49/1/43 48/1/43 30/1/43
f 30/1/44 48/1/44 47/1/44 36/1/44
f 36/1/45 47/1/45 46/1/45 42/1/45
f 42/1/46 46/1/46 43/1/46
f 16/1/47 8/1/47 49/1/47 24/1/47
f 21/1/48 53/1/48 52/1/48 27/1/48
f 27/1/49 52/1/49 51/1/49 33/1/49
f 33/1/50 51/1/50 50/1/50 39/1/50
f 39/1/51 50/1/51 45/1/51
f 12/1/52 6/1/52 53/1/52 21/1/52
f 3/4/53 17/1/53 4/6/53 7/3/53 2/2/53 13/1/53 1/1/53 5/5/53
l 7 9
l 5 9
