# Blender 4.5.3 LTS
# www.blender.org
mtllib slash_trail.mtl
o Plane.001
v -0.999958 0.002503 0.900000
v 1.000037 -0.000676 0.900000
v 0.200039 0.000596 0.393267
v -0.599959 0.001867 0.600000
v -0.199960 0.001231 0.393267
v 0.600038 -0.000040 0.600000
v -0.999958 0.002503 2.000000
v 1.000037 -0.000676 2.000000
v 0.200039 0.000596 1.493268
v -0.599959 0.001867 1.700000
v -0.199960 0.001231 1.493268
v 0.600038 -0.000040 1.700000
vn 0.0016 1.0000 -0.0000
vt 0.600000 0.000000
vt 0.600000 0.984498
vt 0.800000 0.984498
vt 0.800000 0.128666
vt 0.000000 0.315381
vt 0.000000 0.984498
vt 0.200000 0.984498
vt 0.200000 0.128666
vt 0.400000 0.000000
vt 0.400000 0.984498
vt 1.000000 0.984498
vt 1.000000 0.315381
s 0
f 3/1/1 9/2/1 12/3/1 6/4/1
f 1/5/1 7/6/1 10/7/1 4/8/1
f 5/9/1 11/10/1 9/2/1 3/1/1
f 4/8/1 10/7/1 11/10/1 5/9/1
f 6/4/1 12/3/1 8/11/1 2/12/1
