# Blender 4.5.3 LTS
# www.blender.org
mtllib slash.mtl
o Plane
v -0.999958 0.002503 0.900000
v 1.000037 -0.000676 0.900000
v 0.200039 0.000596 0.393267
v -0.599959 0.001867 0.600000
v -0.199960 0.001231 0.393267
v 0.600038 -0.000040 0.600000
v 0.600038 -0.000040 0.239960
v 0.200039 0.000596 0.000000
v -0.199960 0.001231 0.000000
v -0.599959 0.001867 0.239960
v 0.600000 0.078846 0.489960
v -0.600000 0.078846 0.489960
v -0.200000 0.095548 0.250000
v 0.200000 0.095548 0.250000
v -0.600168 -0.075112 0.489960
v 0.599826 -0.078926 0.489960
v 0.199775 -0.094357 0.250000
v -0.200224 -0.093085 0.250000
vn -0.2321 0.0015 0.9727
vn 0.2321 -0.0015 0.9727
vn -0.2817 0.0009 0.9595
vn 0.5626 -0.0017 0.8267
vn 0.2786 -0.0009 0.9604
vn -0.5630 0.0017 0.8265
vn 0.6089 -0.0031 -0.7932
vn 0.1887 -0.0011 -0.9820
vn -0.1913 0.0011 -0.9815
vn -0.6108 0.0031 -0.7918
vn 0.0560 0.9885 0.1401
vn -0.0535 0.9891 0.1373
vn -0.0452 0.9990 0.0026
vn 0.0471 0.9989 0.0021
vn -0.0556 -0.9888 0.1384
vn 0.0539 -0.9888 0.1391
vn 0.0441 -0.9990 0.0017
vn -0.0482 -0.9988 0.0030
vt 0.112841 0.296573
vt 0.277267 0.373840
vt 0.200000 0.500000
vt 0.887159 0.203427
vt 0.877267 0.126160
vt 0.800000 0.000000
vt 0.122733 0.126160
vt 0.000000 0.000000
vt 0.200000 0.000000
vt 0.373362 0.112841
vt 0.400000 0.000000
vt 0.626638 0.126160
vt 0.600000 0.000000
vt 0.722733 0.373840
vt 1.000000 0.500000
vt 0.800000 0.500000
vt 0.573362 0.387159
vt 0.600000 0.500000
vt 0.426638 0.373840
vt 0.400000 0.500000
s 1
f 2/1/2 16/2/16 7/3/7
f 2/4/2 11/5/11 6/6/6
f 1/4/1 15/5/15 4/6/4
f 1/1/1 12/2/12 10/3/10
f 12/7/12 1/8/1 4/9/4
f 13/10/13 12/7/12 4/9/4 5/11/5
f 14/12/14 13/10/13 5/11/5 3/13/3
f 11/5/11 14/12/14 3/13/3 6/6/6
f 11/14/11 2/15/2 7/16/7
f 14/17/14 11/14/11 7/16/7 8/18/8
f 13/19/13 14/17/14 8/18/8 9/20/9
f 12/2/12 13/19/13 9/20/9 10/3/10
f 16/7/16 2/8/2 6/9/6
f 17/10/17 16/7/16 6/9/6 3/11/3
f 18/12/18 17/10/17 3/11/3 5/13/5
f 15/5/15 18/12/18 5/13/5 4/6/4
f 15/14/15 1/15/1 10/16/10
f 18/17/18 15/14/15 10/16/10 9/18/9
f 17/19/17 18/17/18 9/18/9 8/20/8
f 16/2/16 17/19/17 8/20/8 7/3/7
