# Blender 4.5.3 LTS
# www.blender.org
mtllib small_shard.mtl
o Cube
v -0.021245 -0.021245 0.065137
v -0.021245 0.021245 0.065137
v -0.021338 -0.021338 -0.061566
v -0.021338 0.021338 -0.061566
v 0.021245 -0.021245 0.065137
v 0.021245 0.021245 0.065137
v 0.021338 -0.021338 -0.061566
v 0.021338 0.021338 -0.061566
v -0.039217 -0.039217 0.001698
v -0.028153 0.000000 0.068417
v -0.039217 0.039217 0.001698
v -0.028610 0.000000 -0.063870
v 0.000000 -0.028610 -0.063870
v 0.000000 0.028610 -0.063870
v 0.028610 0.000000 -0.063870
v 0.039217 -0.039217 0.001698
v 0.039217 0.039217 0.001698
v 0.028153 0.000000 0.068417
v 0.000000 -0.028153 0.068417
v 0.000000 0.028153 0.068417
v -0.054011 0.000000 0.001698
v 0.000000 0.000000 -0.125926
v 0.054011 0.000000 0.001698
v 0.000000 0.000000 0.125926
v 0.000000 -0.054011 0.001698
v 0.000000 0.054011 0.001698
vn -0.6481 -0.6481 0.3998
vn -0.6481 0.6481 0.3998
vn -0.6503 -0.6503 -0.3929
vn -0.6503 0.6503 -0.3929
vn 0.6481 -0.6481 0.3998
vn 0.6481 0.6481 0.3998
vn 0.6503 -0.6503 -0.3929
vn 0.6503 0.6503 -0.3929
vn -0.7071 -0.7071 0.0002
vn -0.9157 -0.0000 0.4018
vn -0.7071 0.7071 0.0002
vn -0.9208 -0.0000 -0.3900
vn -0.0000 -0.9208 -0.3900
vn -0.0000 0.9208 -0.3900
vn 0.9208 -0.0000 -0.3900
vn 0.7071 -0.7071 0.0002
vn 0.7071 0.7071 0.0002
vn 0.9157 -0.0000 0.4018
vn -0.0000 -0.9157 0.4018
vn -0.0000 0.9157 0.4018
vn -1.0000 -0.0000 0.0002
vn -0.0000 -0.0000 -1.0000
vn 1.0000 -0.0000 0.0002
vn -0.0000 -0.0000 1.0000
vn -0.0000 -1.0000 0.0002
vn -0.0000 1.0000 0.0002
vt 0.392673 -0.017662
vt 0.500000 -0.016682
vt 0.500000 0.125000
vt 0.375000 0.125000
vt 0.607327 -0.017662
vt 0.625000 0.125000
vt 0.592763 0.268371
vt 0.500000 0.212964
vt 0.407237 0.268371
vt 0.500000 0.375000
vt 0.354528 0.375000
vt 0.608143 0.482451
vt 0.500000 0.537036
vt 0.391858 0.482451
vt 0.500000 0.625000
vt 0.375000 0.625000
vt 0.625000 0.625000
vt 0.581083 0.772421
vt 0.500000 0.720524
vt 0.418917 0.772421
vt 0.500000 0.875000
vt 0.359864 0.875000
vt 0.588248 0.963248
vt 0.500000 1.015136
vt 0.411752 0.963248
vt 0.143085 0.484319
vt 0.250000 0.486109
vt 0.250000 0.625000
vt 0.125000 0.625000
vt 0.250000 0.766682
vt 0.142673 0.767662
vt 0.750000 0.486109
vt 0.750000 0.625000
vt 0.856916 0.484320
vt 0.875000 0.625000
vt 0.857327 0.767662
vt 0.750000 0.766682
vt 0.640136 0.875000
vt 0.645472 0.375000
s 1
f 1/1/1 10/2/10 21/3/21 9/4/9
f 10/2/10 2/5/2 11/6/11 21/3/21
f 21/3/21 11/6/11 4/7/4 12/8/12
f 9/4/9 21/3/21 12/8/12 3/9/3
f 3/9/3 22/10/22 13/11/13
f 4/7/4 22/10/22 12/8/12
f 22/10/22 8/12/8 15/13/15
f 22/10/22 7/14/7 13/11/13
f 7/14/7 15/13/15 23/15/23 16/16/16
f 15/13/15 8/12/8 17/17/17 23/15/23
f 23/15/23 17/17/17 6/18/6 18/19/18
f 16/16/16 23/15/23 18/19/18 5/20/5
f 5/20/5 24/21/24 19/22/19
f 6/18/6 24/21/24 18/19/18
f 24/21/24 2/23/2 10/24/10
f 24/21/24 1/25/1 19/22/19
f 3/26/3 13/27/13 25/28/25 9/29/9
f 13/27/13 7/14/7 16/16/16 25/28/25
f 25/28/25 16/16/16 5/20/5 19/30/19
f 9/29/9 25/28/25 19/30/19 1/31/1
f 8/12/8 14/32/14 26/33/26 17/17/17
f 14/32/14 4/34/4 11/35/11 26/33/26
f 26/33/26 11/35/11 2/36/2 20/37/20
f 17/17/17 26/33/26 20/37/20 6/18/6
f 5/20/5 18/19/18 24/21/24
f 6/18/6 20/38/20 24/21/24
f 24/21/24 20/38/20 2/23/2
f 24/21/24 10/24/10 1/25/1
f 3/9/3 12/8/12 22/10/22
f 4/7/4 14/39/14 22/10/22
f 22/10/22 14/39/14 8/12/8
f 22/10/22 15/13/15 7/14/7
